<svg width="25" height="24" viewBox="0 0 25 24" fill="none" xmlns="http://www.w3.org/2000/svg">
<path fill-rule="evenodd" clip-rule="evenodd" d="M12.0122 22.5C17.8169 22.5 22.5225 17.799 22.5225 12C22.5225 6.20101 17.8169 1.5 12.0122 1.5C6.20756 1.5 1.50195 6.20101 1.50195 12C1.50195 17.799 6.20756 22.5 12.0122 22.5ZM7.7277 7.71967C7.99833 7.44931 8.42417 7.42851 8.71868 7.65728L8.7894 7.71967L12.0122 10.9393L15.235 7.71967L15.3058 7.65728C15.6003 7.42851 16.0261 7.44931 16.2967 7.71967C16.5899 8.01256 16.5899 8.48744 16.2967 8.78033L13.0739 12L16.2967 15.2197C16.5899 15.5126 16.5899 15.9874 16.2967 16.2803C16.0261 16.5507 15.6003 16.5715 15.3058 16.3427L15.235 16.2803L12.0122 13.0607L8.7894 16.2803L8.71868 16.3427C8.42417 16.5715 7.99833 16.5507 7.7277 16.2803C7.43452 15.9874 7.43452 15.5126 7.7277 15.2197L10.9505 12L7.7277 8.78033C7.43452 8.48744 7.43452 8.01256 7.7277 7.71967Z" fill="#AFB9C3"/>
</svg>
