<svg width="28" height="28" viewBox="0 0 28 28" fill="none" xmlns="http://www.w3.org/2000/svg">
<rect x="0.5" y="0.5" width="27" height="27" rx="9.5" fill="white" stroke="#232734"/>
<path d="M18.7642 9.23556C17.9664 8.44 16.9064 8 15.7797 8C14.6531 8 13.5931 8.44 12.7953 9.23556L12.262 9.76889C12.1775 9.85333 12.1309 9.96444 12.1309 10.0822C12.1309 10.2 12.1775 10.3133 12.262 10.3956C12.4309 10.5644 12.722 10.5644 12.8909 10.3956L13.4242 9.86222C14.0531 9.23556 14.8909 8.88889 15.7797 8.88889C16.6686 8.88889 17.5064 9.23556 18.1353 9.86444C18.7642 10.4933 19.1109 11.3311 19.1109 12.22C19.1109 13.1089 18.7642 13.9467 18.1353 14.5756L17.602 15.1089C17.5175 15.1933 17.4709 15.3044 17.4709 15.4222C17.4709 15.54 17.5175 15.6533 17.602 15.7356C17.6864 15.82 17.7975 15.8667 17.9153 15.8667C18.0331 15.8667 18.1464 15.82 18.2286 15.7356L18.762 15.2022C19.5597 14.4067 19.9997 13.3467 19.9997 12.22C19.9997 11.0933 19.5597 10.0333 18.7642 9.23556Z" fill="#232734" stroke="#232734" stroke-width="0.25" stroke-linejoin="round"/>
<path d="M15.1089 17.6022L14.5756 18.1355C13.9467 18.7644 13.1089 19.1111 12.22 19.1111C11.3311 19.1111 10.4933 18.7644 9.86444 18.1355C9.23556 17.5066 8.88889 16.6688 8.88889 15.78C8.88889 14.8911 9.23556 14.0533 9.86444 13.4244L10.3978 12.8911C10.4822 12.8066 10.5289 12.6955 10.5289 12.5777C10.5289 12.46 10.4822 12.3466 10.3978 12.2644C10.2244 12.0911 9.94222 12.0911 9.76889 12.2644L9.23556 12.7977C8.44 13.5933 8 14.6533 8 15.78C8 16.9066 8.44 17.9666 9.23556 18.7644C10.0333 19.56 11.0933 20 12.22 20C13.3467 20 14.4067 19.56 15.2044 18.7644L15.7378 18.2311C15.8222 18.1466 15.8689 18.0355 15.8689 17.9177C15.8689 17.8 15.8222 17.6866 15.7378 17.6044C15.5644 17.4288 15.2822 17.4288 15.1089 17.6044V17.6022Z" fill="#232734" stroke="#232734" stroke-width="0.25" stroke-linejoin="round"/>
<path d="M15.6442 11.7289L11.7286 15.6445C11.5553 15.8178 11.5553 16.1 11.7286 16.2734C11.8131 16.3578 11.9242 16.4045 12.042 16.4045C12.1597 16.4045 12.2731 16.3578 12.3553 16.2734L16.2709 12.3556C16.4442 12.1822 16.4442 11.9 16.2709 11.7267C16.0997 11.5556 15.8175 11.5556 15.6442 11.7289Z" fill="#232734" stroke="#232734" stroke-width="0.25" stroke-linejoin="round"/>
</svg>
